<?xml version="1.0" encoding="utf-8"?>
<svg clip-path="url(#clip-box)" fill="#000" version="1.1" viewBox="0 0 500 100" x="0px" xml:space="preserve" xmlns:xlink="http://www.w3.org/1999/xlink" xmlns="http://www.w3.org/2000/svg" y="0px"><clipPath clipPathUnits="objectBoundingBox" id="clip-box"><rect height="100" width="500" x="0" y="0"></rect></clipPath><rect fill="#363333" height="100" width="500" x="0" y="0"></rect><g><line stroke-opacity="15%" stroke="#F3C581" x1="0" x2="-25" y1="20" y2="80"></line><line stroke-opacity="15%" stroke="#F3C581" x1="10" x2="-15" y1="20" y2="80"></line><line stroke-opacity="15%" stroke="#F3C581" x1="20" x2="-5" y1="20" y2="80"></line><line stroke-opacity="15%" stroke="#F3C581" x1="30" x2="5" y1="20" y2="80"></line><line stroke-opacity="15%" stroke="#F3C581" x1="40" x2="15" y1="20" y2="80"></line><line stroke-opacity="15%" stroke="#F3C581" x1="50" x2="25" y1="20" y2="80"></line><line stroke-opacity="15%" stroke="#F3C581" x1="60" x2="35" y1="20" y2="80"></line><line stroke-opacity="15%" stroke="#F3C581" x1="70" x2="45" y1="20" y2="80"></line><line stroke-opacity="15%" stroke="#F3C581" x1="80" x2="55" y1="20" y2="80"></line><line stroke-opacity="15%" stroke="#F3C581" x1="90" x2="65" y1="20" y2="80"></line><line stroke-opacity="15%" stroke="#F3C581" x1="100" x2="75" y1="20" y2="80"></line><line stroke-opacity="15%" stroke="#F3C581" x1="110" x2="85" y1="20" y2="80"></line><line stroke-opacity="15%" stroke="#F3C581" x1="120" x2="95" y1="20" y2="80"></line><line stroke-opacity="15%" stroke="#F3C581" x1="130" x2="105" y1="20" y2="80"></line><line stroke-opacity="15%" stroke="#F3C581" x1="140" x2="115" y1="20" y2="80"></line><line stroke-opacity="15%" stroke="#F3C581" x1="150" x2="125" y1="20" y2="80"></line><line stroke-opacity="15%" stroke="#F3C581" x1="160" x2="135" y1="20" y2="80"></line><line stroke-opacity="15%" stroke="#F3C581" x1="170" x2="145" y1="20" y2="80"></line><line stroke-opacity="15%" stroke="#F3C581" x1="180" x2="155" y1="20" y2="80"></line><line stroke-opacity="15%" stroke="#F3C581" x1="190" x2="165" y1="20" y2="80"></line><line stroke-opacity="15%" stroke="#F3C581" x1="200" x2="175" y1="20" y2="80"></line><line stroke-opacity="15%" stroke="#F3C581" x1="210" x2="185" y1="20" y2="80"></line><line stroke-opacity="15%" stroke="#F3C581" x1="220" x2="195" y1="20" y2="80"></line><line stroke-opacity="15%" stroke="#F3C581" x1="230" x2="205" y1="20" y2="80"></line><line stroke-opacity="15%" stroke="#F3C581" x1="240" x2="215" y1="20" y2="80"></line><line stroke-opacity="15%" stroke="#F3C581" x1="250" x2="225" y1="20" y2="80"></line><line stroke-opacity="15%" stroke="#F3C581" x1="260" x2="235" y1="20" y2="80"></line><line stroke-opacity="15%" stroke="#F3C581" x1="270" x2="245" y1="20" y2="80"></line><line stroke-opacity="15%" stroke="#F3C581" x1="280" x2="255" y1="20" y2="80"></line><line stroke-opacity="15%" stroke="#F3C581" x1="290" x2="265" y1="20" y2="80"></line><line stroke-opacity="15%" stroke="#F3C581" x1="300" x2="275" y1="20" y2="80"></line><line stroke-opacity="15%" stroke="#F3C581" x1="310" x2="285" y1="20" y2="80"></line><line stroke-opacity="15%" stroke="#F3C581" x1="320" x2="295" y1="20" y2="80"></line><line stroke-opacity="15%" stroke="#F3C581" x1="330" x2="305" y1="20" y2="80"></line><line stroke-opacity="15%" stroke="#F3C581" x1="340" x2="315" y1="20" y2="80"></line><line stroke-opacity="15%" stroke="#F3C581" x1="350" x2="325" y1="20" y2="80"></line><line stroke-opacity="15%" stroke="#F3C581" x1="360" x2="335" y1="20" y2="80"></line><line stroke-opacity="15%" stroke="#F3C581" x1="370" x2="345" y1="20" y2="80"></line><line stroke-opacity="15%" stroke="#F3C581" x1="380" x2="355" y1="20" y2="80"></line><line stroke-opacity="15%" stroke="#F3C581" x1="390" x2="365" y1="20" y2="80"></line><line stroke-opacity="15%" stroke="#F3C581" x1="400" x2="375" y1="20" y2="80"></line><line stroke-opacity="15%" stroke="#F3C581" x1="410" x2="385" y1="20" y2="80"></line><line stroke-opacity="15%" stroke="#F3C581" x1="420" x2="395" y1="20" y2="80"></line><line stroke-opacity="15%" stroke="#F3C581" x1="430" x2="405" y1="20" y2="80"></line><line stroke-opacity="15%" stroke="#F3C581" x1="440" x2="415" y1="20" y2="80"></line><line stroke-opacity="15%" stroke="#F3C581" x1="450" x2="425" y1="20" y2="80"></line><line stroke-opacity="15%" stroke="#F3C581" x1="460" x2="435" y1="20" y2="80"></line><line stroke-opacity="15%" stroke="#F3C581" x1="470" x2="445" y1="20" y2="80"></line><line stroke-opacity="15%" stroke="#F3C581" x1="480" x2="455" y1="20" y2="80"></line><line stroke-opacity="15%" stroke="#F3C581" x1="490" x2="465" y1="20" y2="80"></line><line stroke-opacity="15%" stroke="#F3C581" x1="500" x2="475" y1="20" y2="80"></line><line stroke-opacity="15%" stroke="#F3C581" x1="510" x2="485" y1="20" y2="80"></line><line stroke-opacity="15%" stroke="#F3C581" x1="520" x2="495" y1="20" y2="80"></line></g><g><line stroke-opacity="15%" stroke-width="2" stroke="#F3C581" x1="-18" x2="-26.25" y1="27" y2="47"></line><line stroke-opacity="15%" stroke-width="2" stroke="#F3C581" x1="-8" x2="-16.25" y1="27" y2="47"></line><line stroke-opacity="15%" stroke-width="2" stroke="#F3C581" x1="2" x2="-6.25" y1="27" y2="47"></line><line stroke-opacity="15%" stroke-width="2" stroke="#F3C581" x1="12" x2="3.75" y1="27" y2="47"></line><line stroke-opacity="15%" stroke-width="2" stroke="#F3C581" x1="22" x2="13.75" y1="27" y2="47"></line><line stroke-opacity="15%" stroke-width="2" stroke="#F3C581" x1="32" x2="23.75" y1="27" y2="47"></line><line stroke-opacity="15%" stroke-width="2" stroke="#F3C581" x1="42" x2="33.75" y1="27" y2="47"></line><line stroke-opacity="15%" stroke-width="2" stroke="#F3C581" x1="52" x2="43.75" y1="27" y2="47"></line><line stroke-opacity="15%" stroke-width="2" stroke="#F3C581" x1="62" x2="53.75" y1="27" y2="47"></line><line stroke-opacity="15%" stroke-width="2" stroke="#F3C581" x1="72" x2="63.75" y1="27" y2="47"></line><line stroke-opacity="15%" stroke-width="2" stroke="#F3C581" x1="82" x2="73.75" y1="27" y2="47"></line><line stroke-opacity="15%" stroke-width="2" stroke="#F3C581" x1="92" x2="83.75" y1="27" y2="47"></line><line stroke-opacity="15%" stroke-width="2" stroke="#F3C581" x1="102" x2="93.75" y1="27" y2="47"></line><line stroke-opacity="15%" stroke-width="2" stroke="#F3C581" x1="112" x2="103.75" y1="27" y2="47"></line><line stroke-opacity="15%" stroke-width="2" stroke="#F3C581" x1="122" x2="113.75" y1="27" y2="47"></line><line stroke-opacity="15%" stroke-width="2" stroke="#F3C581" x1="132" x2="123.75" y1="27" y2="47"></line><line stroke-opacity="15%" stroke-width="2" stroke="#F3C581" x1="142" x2="133.75" y1="27" y2="47"></line><line stroke-opacity="15%" stroke-width="2" stroke="#F3C581" x1="152" x2="143.75" y1="27" y2="47"></line><line stroke-opacity="15%" stroke-width="2" stroke="#F3C581" x1="162" x2="153.75" y1="27" y2="47"></line><line stroke-opacity="15%" stroke-width="2" stroke="#F3C581" x1="172" x2="163.75" y1="27" y2="47"></line><line stroke-opacity="15%" stroke-width="2" stroke="#F3C581" x1="182" x2="173.75" y1="27" y2="47"></line><line stroke-opacity="15%" stroke-width="2" stroke="#F3C581" x1="192" x2="183.75" y1="27" y2="47"></line><line stroke-opacity="15%" stroke-width="2" stroke="#F3C581" x1="202" x2="193.75" y1="27" y2="47"></line><line stroke-opacity="15%" stroke-width="2" stroke="#F3C581" x1="212" x2="203.75" y1="27" y2="47"></line><line stroke-opacity="15%" stroke-width="2" stroke="#F3C581" x1="222" x2="213.75" y1="27" y2="47"></line><line stroke-opacity="15%" stroke-width="2" stroke="#F3C581" x1="232" x2="223.75" y1="27" y2="47"></line><line stroke-opacity="15%" stroke-width="2" stroke="#F3C581" x1="242" x2="233.75" y1="27" y2="47"></line><line stroke-opacity="15%" stroke-width="2" stroke="#F3C581" x1="252" x2="243.75" y1="27" y2="47"></line><line stroke-opacity="15%" stroke-width="2" stroke="#F3C581" x1="262" x2="253.75" y1="27" y2="47"></line><line stroke-opacity="15%" stroke-width="2" stroke="#F3C581" x1="272" x2="263.75" y1="27" y2="47"></line><line stroke-opacity="15%" stroke-width="2" stroke="#F3C581" x1="282" x2="273.75" y1="27" y2="47"></line><line stroke-opacity="15%" stroke-width="2" stroke="#F3C581" x1="292" x2="283.75" y1="27" y2="47"></line><line stroke-opacity="15%" stroke-width="2" stroke="#F3C581" x1="302" x2="293.75" y1="27" y2="47"></line><line stroke-opacity="15%" stroke-width="2" stroke="#F3C581" x1="312" x2="303.75" y1="27" y2="47"></line><line stroke-opacity="15%" stroke-width="2" stroke="#F3C581" x1="322" x2="313.75" y1="27" y2="47"></line><line stroke-opacity="15%" stroke-width="2" stroke="#F3C581" x1="332" x2="323.75" y1="27" y2="47"></line><line stroke-opacity="15%" stroke-width="2" stroke="#F3C581" x1="342" x2="333.75" y1="27" y2="47"></line><line stroke-opacity="15%" stroke-width="2" stroke="#F3C581" x1="352" x2="343.75" y1="27" y2="47"></line><line stroke-opacity="15%" stroke-width="2" stroke="#F3C581" x1="362" x2="353.75" y1="27" y2="47"></line><line stroke-opacity="15%" stroke-width="2" stroke="#F3C581" x1="372" x2="363.75" y1="27" y2="47"></line><line stroke-opacity="15%" stroke-width="2" stroke="#F3C581" x1="382" x2="373.75" y1="27" y2="47"></line><line stroke-opacity="15%" stroke-width="2" stroke="#F3C581" x1="392" x2="383.75" y1="27" y2="47"></line><line stroke-opacity="15%" stroke-width="2" stroke="#F3C581" x1="402" x2="393.75" y1="27" y2="47"></line><line stroke-opacity="15%" stroke-width="2" stroke="#F3C581" x1="412" x2="403.75" y1="27" y2="47"></line><line stroke-opacity="15%" stroke-width="2" stroke="#F3C581" x1="422" x2="413.75" y1="27" y2="47"></line><line stroke-opacity="15%" stroke-width="2" stroke="#F3C581" x1="432" x2="423.75" y1="27" y2="47"></line><line stroke-opacity="15%" stroke-width="2" stroke="#F3C581" x1="442" x2="433.75" y1="27" y2="47"></line><line stroke-opacity="15%" stroke-width="2" stroke="#F3C581" x1="452" x2="443.75" y1="27" y2="47"></line><line stroke-opacity="15%" stroke-width="2" stroke="#F3C581" x1="462" x2="453.75" y1="27" y2="47"></line><line stroke-opacity="15%" stroke-width="2" stroke="#F3C581" x1="472" x2="463.75" y1="27" y2="47"></line><line stroke-opacity="15%" stroke-width="2" stroke="#F3C581" x1="482" x2="473.75" y1="27" y2="47"></line><line stroke-opacity="15%" stroke-width="2" stroke="#F3C581" x1="492" x2="483.75" y1="27" y2="47"></line><line stroke-opacity="15%" stroke-width="2" stroke="#F3C581" x1="502" x2="493.75" y1="27" y2="47"></line><line stroke-opacity="15%" stroke-width="2" stroke="#F3C581" x1="512" x2="503.75" y1="27" y2="47"></line></g></svg>
